<svg width="647" height="292" viewBox="0 0 647 292" fill="none" xmlns="http://www.w3.org/2000/svg">
<path d="M316.123 132.552C307.266 107.301 290.381 85.8792 268.212 71.7662C246.043 57.6533 219.894 51.6789 194.013 54.8141C168.132 57.9492 144.041 70.0095 125.654 89.0352C107.267 108.061 95.6649 132.934 92.7332 159.612C89.8015 186.291 95.7124 213.207 109.505 235.986C123.298 258.766 144.163 276.07 168.708 285.088C193.254 294.105 220.038 294.305 244.708 285.656C269.377 277.007 290.484 260.017 304.596 237.446L281.484 222.106C270.731 239.304 254.649 252.25 235.851 258.84C217.053 265.431 196.645 265.278 177.942 258.407C159.239 251.536 143.341 238.35 132.832 220.993C122.322 203.636 117.818 183.127 120.052 162.799C122.286 142.471 131.126 123.519 145.136 109.022C159.146 94.5248 177.503 85.3353 197.223 82.9464C216.944 80.5576 236.869 85.1098 253.76 95.8634C270.652 106.617 283.518 122.94 290.267 142.18L316.123 132.552Z" fill="#FF7A00"/>
<path d="M316.123 132.552C307.266 107.301 290.381 85.8792 268.212 71.7662C246.043 57.6533 219.894 51.6789 194.013 54.8141C168.132 57.9492 144.041 70.0095 125.654 89.0352C107.267 108.061 95.6649 132.934 92.7332 159.612C89.8015 186.291 95.7124 213.207 109.505 235.986C123.298 258.766 144.163 276.07 168.708 285.088C193.254 294.105 220.038 294.305 244.708 285.656C269.377 277.007 290.484 260.017 304.596 237.446L281.484 222.106C270.731 239.304 254.649 252.25 235.851 258.84C217.053 265.431 196.645 265.278 177.942 258.407C159.239 251.536 143.341 238.35 132.832 220.993C122.322 203.636 117.818 183.127 120.052 162.799C122.286 142.471 131.126 123.519 145.136 109.022C159.146 94.5248 177.503 85.3353 197.223 82.9464C216.944 80.5576 236.869 85.1098 253.76 95.8634C270.652 106.617 283.518 122.94 290.267 142.18L316.123 132.552Z" fill="url(#paint0_linear)"/>
<path d="M248.176 142.232V215H232.912V164.216L214.96 190.04H207.28L189.616 164.408V215H174.352V142.232H191.824L211.216 170.744L230.608 142.232H248.176ZM276.147 192.056C277.299 200.184 282.355 204.248 291.315 204.248C293.747 204.248 296.115 203.928 298.419 203.288C300.787 202.648 303.443 201.624 306.387 200.216L310.323 211.736C307.059 213.528 303.795 214.776 300.531 215.48C297.331 216.248 293.619 216.632 289.395 216.632C283.251 216.632 278.003 215.448 273.651 213.08C269.299 210.648 266.003 207.288 263.763 203C261.523 198.648 260.403 193.624 260.403 187.928C260.403 181.912 261.555 176.76 263.859 172.472C266.163 168.184 269.299 164.952 273.267 162.776C277.235 160.536 281.651 159.416 286.515 159.416C294.259 159.416 300.307 161.688 304.659 166.232C309.075 170.776 311.283 177.432 311.283 186.2V192.056H276.147ZM286.515 171.8C283.827 171.8 281.619 172.504 279.891 173.912C278.227 175.32 277.075 177.624 276.435 180.824H295.827C295.507 177.688 294.579 175.416 293.043 174.008C291.507 172.536 289.331 171.8 286.515 171.8ZM351.268 159.416C356.068 159.416 360.324 160.504 364.036 162.68C367.748 164.792 370.628 167.992 372.676 172.28C374.788 176.568 375.844 181.816 375.844 188.024C375.844 194.232 374.788 199.48 372.676 203.768C370.628 208.056 367.748 211.288 364.036 213.464C360.324 215.576 356.068 216.632 351.268 216.632C346.212 216.632 341.284 214.808 336.484 211.16V215H321.7V133.784H336.484V164.984C341.22 161.272 346.148 159.416 351.268 159.416ZM348.196 203.48C352.228 203.48 355.268 202.168 357.316 199.544C359.428 196.92 360.484 193.08 360.484 188.024C360.484 183.032 359.428 179.224 357.316 176.6C355.268 173.976 352.228 172.664 348.196 172.664C344.356 172.664 340.452 174.104 336.484 176.984V199.064C340.516 202.008 344.42 203.48 348.196 203.48ZM402.982 216.248C392.294 216.248 386.95 211.576 386.95 202.232V133.784H401.734V197.048C401.734 199.352 402.086 200.952 402.79 201.848C403.558 202.68 404.902 203.096 406.822 203.096C408.806 203.096 410.63 202.84 412.294 202.328V215.096C408.582 215.864 405.478 216.248 402.982 216.248ZM434.303 192.056C435.455 200.184 440.511 204.248 449.471 204.248C451.903 204.248 454.271 203.928 456.575 203.288C458.943 202.648 461.599 201.624 464.543 200.216L468.479 211.736C465.215 213.528 461.951 214.776 458.687 215.48C455.487 216.248 451.775 216.632 447.551 216.632C441.407 216.632 436.159 215.448 431.807 213.08C427.455 210.648 424.159 207.288 421.919 203C419.679 198.648 418.559 193.624 418.559 187.928C418.559 181.912 419.711 176.76 422.015 172.472C424.319 168.184 427.455 164.952 431.423 162.776C435.391 160.536 439.807 159.416 444.671 159.416C452.415 159.416 458.463 161.688 462.815 166.232C467.231 170.776 469.439 177.432 469.439 186.2V192.056H434.303ZM444.671 171.8C441.983 171.8 439.775 172.504 438.047 173.912C436.383 175.32 435.231 177.624 434.591 180.824H453.983C453.663 177.688 452.735 175.416 451.199 174.008C449.663 172.536 447.487 171.8 444.671 171.8Z" fill="#4F4F4F"/>
<path d="M501.91 230.744C498.582 230.744 495.958 230.52 494.038 230.072V217.112C495.638 217.432 497.302 217.592 499.03 217.592C500.502 217.592 501.59 217.336 502.294 216.824C503.062 216.376 503.606 215.512 503.926 214.232C504.31 212.888 504.502 210.936 504.502 208.376V142.232H519.766V208.952C519.766 214.84 519.254 219.32 518.23 222.392C517.206 225.464 515.414 227.608 512.854 228.824C510.358 230.104 506.71 230.744 501.91 230.744ZM555.324 160.952C562.044 160.952 567.132 161.912 570.588 163.832C574.044 165.688 576.348 168.184 577.5 171.32C578.652 174.456 579.228 178.456 579.228 183.32V215H564.444V210.392C562.14 212.504 559.868 214.008 557.628 214.904C555.452 215.8 553.02 216.248 550.332 216.248C544.444 216.248 539.772 214.648 536.316 211.448C532.86 208.184 531.132 203.704 531.132 198.008C531.132 192.184 532.892 187.704 536.412 184.568C539.996 181.432 544.924 179.864 551.196 179.864C556.252 179.864 560.668 180.824 564.444 182.744C564.38 180.632 564.092 178.968 563.58 177.752C563.068 176.472 562.044 175.512 560.508 174.872C559.036 174.168 556.828 173.816 553.884 173.816H543.9V160.952H555.324ZM553.308 204.632C556.892 204.632 560.604 203.032 564.444 199.832V193.016C561.116 191.416 557.82 190.616 554.556 190.616C551.996 190.616 549.948 191.192 548.412 192.344C546.876 193.496 546.108 195.32 546.108 197.816C546.108 202.36 548.508 204.632 553.308 204.632ZM612.126 216.632C607.71 216.632 603.806 216.28 600.414 215.576C597.086 214.872 593.598 213.656 589.95 211.928V198.68C593.47 200.664 597.022 202.104 600.606 203C604.254 203.832 608.094 204.248 612.126 204.248C616.926 204.248 619.326 202.648 619.326 199.448C619.326 198.168 618.942 197.176 618.174 196.472C617.406 195.768 616.19 195.224 614.526 194.84L605.982 193.016C600.798 191.928 596.958 190.104 594.462 187.544C591.966 184.984 590.718 181.432 590.718 176.888C590.718 165.24 598.014 159.416 612.606 159.416C618.622 159.416 625.022 160.568 631.806 162.872V175.64C629.31 174.488 626.398 173.56 623.07 172.856C619.806 172.152 616.542 171.8 613.278 171.8C610.462 171.8 608.478 172.152 607.326 172.856C606.238 173.56 605.694 174.584 605.694 175.928C605.694 177.08 606.046 177.944 606.75 178.52C607.454 179.032 608.574 179.48 610.109 179.864L618.654 181.688C624.094 182.776 628.062 184.6 630.558 187.16C633.054 189.72 634.302 193.56 634.302 198.68C634.302 204.632 632.286 209.112 628.254 212.12C624.286 215.128 618.91 216.632 612.126 216.632ZM614.718 137.336H631.614L619.998 152.024H605.118L614.718 137.336Z" fill="#FF7A00"/>
<path d="M163.194 128.374L57.9976 104.341L125.218 27.3705L163.194 128.374Z" fill="#4F4F4F"/>
<ellipse cx="66" cy="34" rx="66" ry="75" fill="white"/>
<defs>
<linearGradient id="paint0_linear" x1="290.888" y1="74" x2="137.989" y2="265.296" gradientUnits="userSpaceOnUse">
<stop stop-color="white"/>
<stop offset="0.691521" stop-color="white" stop-opacity="0"/>
</linearGradient>
</defs>
</svg>
